<svg id="Layer_1" data-name="Layer 1" xmlns="http://www.w3.org/2000/svg" xmlns:xlink="http://www.w3.org/1999/xlink" viewBox="0 0 1914 8083"><defs><style>.cls-1{fill:#5c7eb5;}.cls-2{fill:#ffe3ff;opacity:0.43;}.cls-10,.cls-2,.cls-4,.cls-5,.cls-8{isolation:isolate;}.cls-3{fill:url(#linear-gradient);}.cls-10,.cls-4,.cls-8{fill:#2d006a;}.cls-4{opacity:0.59;}.cls-5{fill:#ffe1ff;opacity:0.37;}.cls-6{fill:url(#linear-gradient-2);}.cls-7{fill:url(#linear-gradient-3);}.cls-8{opacity:0.32;}.cls-9{fill:url(#linear-gradient-4);}.cls-10{opacity:0.08;}.cls-11{fill:url(#linear-gradient-5);}.cls-12{fill:none;}.cls-13{fill:url(#linear-gradient-6);}.cls-14{fill:#d4d2ff;fill-opacity:0.61;}</style><linearGradient id="linear-gradient" x1="974.45" y1="563.73" x2="974.45" y2="170.99" gradientTransform="translate(0 404)" gradientUnits="userSpaceOnUse"><stop offset="0" stop-color="#ffdce6"/><stop offset="0.16" stop-color="#f6dbe2"/><stop offset="0.41" stop-color="#ded9d7"/><stop offset="0.73" stop-color="#b6d6c6"/><stop offset="1" stop-color="#8fd2b5"/></linearGradient><linearGradient id="linear-gradient-2" x1="1433.9" y1="642.53" x2="1433.9" y2="91.86" gradientTransform="translate(0 404)" gradientUnits="userSpaceOnUse"><stop offset="0" stop-color="#e7d9d6"/><stop offset="0.16" stop-color="#cbd2cf"/><stop offset="0.49" stop-color="#84c0bf"/><stop offset="0.98" stop-color="#14a4a4"/><stop offset="1" stop-color="#0fa3a3"/></linearGradient><linearGradient id="linear-gradient-3" x1="828.45" y1="967.67" x2="828.45" y2="346.28" gradientTransform="translate(0 404)" gradientUnits="userSpaceOnUse"><stop offset="0" stop-color="#e7d9d6"/><stop offset="0.16" stop-color="#cbccce"/><stop offset="0.49" stop-color="#84a9b8"/><stop offset="0.98" stop-color="#147295"/><stop offset="1" stop-color="#0f7094"/></linearGradient><linearGradient id="linear-gradient-4" x1="782.94" y1="1586" x2="782.94" y2="719.47" gradientTransform="translate(0 404)" gradientUnits="userSpaceOnUse"><stop offset="0" stop-color="#aab1c2"/><stop offset="0.49" stop-color="#6088ad"/><stop offset="1" stop-color="#0f5b95"/></linearGradient><linearGradient id="linear-gradient-5" x1="933.42" y1="2353" x2="933.42" y2="1092.57" gradientTransform="translate(34.93 397.19) rotate(0.41)" gradientUnits="userSpaceOnUse"><stop offset="0" stop-color="#6488c4"/><stop offset="0.19" stop-color="#6084bf"/><stop offset="0.4" stop-color="#5477b2"/><stop offset="0.62" stop-color="#41619c"/><stop offset="0.85" stop-color="#25437d"/><stop offset="1" stop-color="#0f2a63"/></linearGradient><linearGradient id="linear-gradient-6" x1="1359.41" y1="1541.79" x2="1359.41" y2="1057.04" gradientTransform="matrix(1.1, 0.01, -0.01, 1.1, -158.48, -58.91)" xlink:href="#linear-gradient-2"/></defs><rect class="cls-1" x="-0.07" y="-0.3" width="1914.79" height="8083.35"/><path class="cls-2" d="M0,378.1s54.1,3.3,119,13.3,198,3.3,249.5,11.6,63.2,28.3,118.1,34.9,163,15,189.7,36.6,44.9,41.6,91.5,46.6,99.8,3.3,119.8,16.6,78.6,5,63.4,17.5-148.3-7.3-183.2,7.6,11.6,39.9,44.1,46.5,178.8-14.9,223.8,0,96.5,28.2,158,26.6,94.1-14.3,138.1.1,165,8.5,211.3,19.8,113.1,8.3,113.1,8.3V801.4H0Z"/><path class="cls-3" d="M1253.6,766.4s-29.1-34.1-36.6-53.2-14.1-52.4-36.6-60.7-49.6-19.1-49.6-19.1l-36.1-26.6-16.6-12.5h-20s-10,9.2-24.1,10-52.4,19.1-52.4,19.1-37.4,25.8-44.1,29.1-57.4,18.3-57.4,18.3l-74.9,24.1L704.5,751.5l-9.2,138.1h558.2l.1-123.2Z"/><path class="cls-4" d="M1121.8,640.8c13.7,8.7,48.7,39.9,46.2,54.9s-37.1,39.9-37.1,39.9l-15.3,36.2L1050.7,803,944.4,889.5h309.2V766.4s-29.1-34.1-36.6-53.2-14.1-52.4-36.6-60.7-49.6-19.1-49.6-19.1l-36.1-26.6C1094.7,606.7,1108.1,632.1,1121.8,640.8Z"/><path class="cls-5" d="M953.3,669.1l25.8-16.6,27.5-29.1,38.6-21.6a37.64,37.64,0,0,1-11.2,2.4c-14.1.8-52.4,19.1-52.4,19.1s-37.4,25.8-44.1,29.1-57.4,18.3-57.4,18.3l-74.9,24.1,44.9-3.3Z"/><path class="cls-6" d="M1914.71,544.3s-73.65,50.8-96.13,64.1-52.45,10.7-73.93,11.6-49.86-18.3-49.86-18.3l-49.85,34.9L1579,686.5l-67.54-53.2L1492.28,606l-17.58,12.4-131.78,78.2L1322,713.2h-37l-43.36-10L1113,798,953.08,899.5v163l960.78,1.46Z"/><path class="cls-4" d="M1493.9,709.5l-32.6,26.2-26.5,48.7v40.1L1401,884.2l-22.1,40.3,82.4-84,51.6-80.7,67-73.2-67.6-53.2C1516.8,667,1493.9,709.5,1493.9,709.5Z"/><path class="cls-4" d="M1817.24,608.56a43.3,43.3,0,0,1-6.1,3s-30.1,39.5-51.8,56.9-86.9,66.1-86.9,66.1-39.8,68.6-66.4,84.8-108.6,80.3-108.6,80.3l-115.8,163,531.62,5.21,1.45-524.07C1914.72,543.9,1839.74,595.26,1817.24,608.56Z"/><path class="cls-7" d="M495.75,608.85h38.6l94.8-13.3,41.8,13.3L828.05,732l79.6,34.9L1138.15,910l277,72.9,241.1,66.9v148.1H.65v-381S118,748.65,156.55,742s154.3-33.3,154.3-33.3l147.9-64.9Z"/><path class="cls-5" d="M56.15,798.55l214.5-39.9,123.8-58.2,94.8-64.9,45-26.6h-38.6l-37,34.9-147.9,64.9s-115.7,26.6-154.3,33.3S.65,816.85.65,816.85v32.9Z"/><path class="cls-8" d="M1415.15,982.85l-277-72.9L907.65,767l-79.6-34.9L748.85,670h0l63.2,88.7,171.5,109.8s94.4,82.7,97.4,87.1,371.1,37.7,371.1,37.7Z"/><path class="cls-9" d="M1566.74,1132.16l-363-43-278.8-65.3-91.2-89.5-74.5-29.2-107.8-100.9-126.1-52.7h-94s-164,73.9-208.7,80.3-122.5,42.4-122.5,42.4L-.06,908l-.8,132.4,1.58,573,1501.82-80Z"/><polygon class="cls-10" points="723.64 1096.06 651.45 1125.26 376.35 1293.76 376.35 1533.36 1502.55 1533.36 1566.74 1132.16 1203.74 1089.16 924.85 1023.76 833.75 934.36 777.04 989.96 723.64 1096.06"/><path class="cls-11" d="M1914.71,768.08,1856.39,868.8l-93.8,159s-174.6,59.1-204,55.4-64.9,42.1-64.9,42.1l-160.3,155.1-46.9-.3-113.6-50.5-38.5-.3-88.9,70.4-43.6-.3-19.4,17.6-35.2-50-60.5-53.7-13.6-32.1-49.3-11-19.3-42.8-33.7,14-77.4,81.1-40.4,28.1s-64.7,27.9-97.5,41.9-87.9,109.5-87.9,109.5-138.8,130.7-184,144.4-95.6,3-167.1,12.9S0,1614.2,0,1614.2L1,2353l1912.85,7.59Z"/><rect class="cls-12" x="17" y="216.6" width="1871.6" height="1247.7"/><path class="cls-13" d="M1914.71,1165.23s-88.14,51.77-113.84,64.47-84.2,10.7-84.2,10.7l-27.4-.2-29.1-17.8-56.9,33.4-75.3,47.7-76.4-51.9-12.7-19.4-29.3,4.6-150.4,74.6-23.9,15.9-42-.2-80.9,17.6L920,1475.3l-137.2,111.3-47.4,67.9,78.3,7.9,1100.53,5.81Z"/><path class="cls-4" d="M1440.5,1324.1l-33.8,22.8-27.7,42.5-.2,35.1-35.3,52.2-23.1,35.2,85.7-73.1,53.9-70.4,69.7-63.8-69.6-47.1C1464.4,1287.1,1440.5,1324.1,1440.5,1324.1Z"/><path class="cls-4" d="M1816.2,1221.1c-1.9.9-4.1,1.8-6.3,2.6,0,0-31.3,34.4-53.9,49.6s-90.2,57.4-90.2,57.4-41.6,59.9-69.1,74-112.7,69.7-112.7,69.7l-120.7,142.1,550.82,5.32.22-456.59C1914.34,1165.33,1839.6,1209.5,1816.2,1221.1Z"/><path class="cls-14" d="M716.06,1655c347.8,87.6,440.4.6,497.4,20.2,237,81.6,277.2-17.3,379.5,8.4,204.3,51.3,229.1-.5,292-3.9,30.71-1.61,31-19.08,29.08-35-2.33-18.8-13.23-31.08-32.16-30.32-34.51,1.38-97.32,1.85-139.62-9.8-60.9-16.8-100.3-6.7-159.3-43.7s-53.1-57.2-123.9-50.4-51.1,33.6-125.8,16.8-119.9-77.3-184.8-50.4-102.2,63.9-186.8,67.3C877.26,1547.4,698.76,1650.6,716.06,1655Z"/></svg>