<svg id="Layer_1" data-name="Layer 1" xmlns="http://www.w3.org/2000/svg" viewBox="0 0 316.21 60.95"><defs><style>.cls-1{fill:#aeffae;stroke:#fff;stroke-miterlimit:10;stroke-width:1.17px;}</style></defs><path class="cls-1" d="M408.09,493.21a23.4,23.4,0,1,1,12.73-43,23,23,0,0,1,8.54,9.94H416.75a13,13,0,1,0,1.17,18.19h12a23.3,23.3,0,0,1-8.55,10.78A22.65,22.65,0,0,1,408.09,493.21Z" transform="translate(-384.11 -432.84)"/><path class="cls-1" d="M473.56,486.35a23.37,23.37,0,1,1,6.86-16.54A22.57,22.57,0,0,1,473.56,486.35ZM447.85,479a13,13,0,1,0-3.82-9.17A12.51,12.51,0,0,0,447.85,479Z" transform="translate(-384.11 -432.84)"/><path class="cls-1" d="M527,467.17v26H516.58v-26a10.38,10.38,0,1,0-20.76,0v26H485.4v-26a20.8,20.8,0,0,1,41.59,0Z" transform="translate(-384.11 -432.84)"/><path class="cls-1" d="M573.72,467.17v26H563.3v-26a10.38,10.38,0,1,0-20.76,0v26H532.13v-26a20.8,20.8,0,0,1,41.59,0Z" transform="translate(-384.11 -432.84)"/><path class="cls-1" d="M585.42,453.27a23.39,23.39,0,0,1,39.93,16.54,21.63,21.63,0,0,1-.22,3.15H589.34a13,13,0,0,0,21,6.75h12.76a23.41,23.41,0,0,1-8.54,9.8,23.38,23.38,0,0,1-29.12-36.24Zm4.36,11.92h24.28a12.88,12.88,0,0,0-4.7-6.09,12.51,12.51,0,0,0-7.4-2.35,13,13,0,0,0-12.18,8.44Z" transform="translate(-384.11 -432.84)"/><path class="cls-1" d="M652.35,493.21a23.4,23.4,0,1,1,12.72-43,23.05,23.05,0,0,1,8.55,9.94H661a13,13,0,1,0,1.18,18.19h12a23.34,23.34,0,0,1-8.54,10.78A22.65,22.65,0,0,1,652.35,493.21Z" transform="translate(-384.11 -432.84)"/><path class="cls-1" d="M692,433.43V445.9h4.69v7.77H692v23.92a5,5,0,0,0,1.5,3.7,4.94,4.94,0,0,0,3.63,1.5h2.64v10.42h-2.64a14.94,14.94,0,0,1-11-4.58,15.13,15.13,0,0,1-4.55-11V453.67h-4.69V445.9h4.69V433.43Z" transform="translate(-384.11 -432.84)"/></svg>