<?xml version="1.0" encoding="utf-8"?>
<!-- Generator: Adobe Illustrator 24.3.0, SVG Export Plug-In . SVG Version: 6.00 Build 0)  -->
<svg version="1.1" id="Layer_1" xmlns="http://www.w3.org/2000/svg" xmlns:xlink="http://www.w3.org/1999/xlink" x="0px" y="0px"
	 viewBox="0 0 141.7 141.7" style="enable-background:new 0 0 141.7 141.7;" xml:space="preserve">
<style type="text/css">
	.st0{fill:#FFFFFF;}
</style>
<path class="st0" d="M110.7,32.3c-7.8-3.6-16.2-6.2-25-7.8c-0.2,0-0.3,0-0.4,0.2c-1.1,1.9-2.3,4.4-3.1,6.4c-9.4-1.4-18.8-1.4-28.1,0
	c-0.8-2-2.1-4.5-3.2-6.4c-0.1-0.1-0.2-0.2-0.4-0.2c-8.8,1.5-17.2,4.2-25,7.8c-0.1,0-0.1,0.1-0.2,0.1C9.4,56.2,5.1,79.4,7.2,102.3
	c0,0.1,0.1,0.2,0.2,0.3c10.5,7.7,20.7,12.4,30.7,15.5c0.2,0,0.3,0,0.4-0.1c2.4-3.2,4.5-6.6,6.3-10.2c0.1-0.2,0-0.5-0.2-0.5
	c-3.3-1.3-6.5-2.8-9.6-4.6c-0.2-0.1-0.3-0.5,0-0.7c0.6-0.5,1.3-1,1.9-1.5c0.1-0.1,0.3-0.1,0.4-0.1c20.1,9.2,41.9,9.2,61.7,0
	c0.1-0.1,0.3,0,0.4,0c0.6,0.5,1.3,1,1.9,1.5c0.2,0.2,0.2,0.5,0,0.7c-3.1,1.8-6.2,3.3-9.6,4.6c-0.2,0.1-0.3,0.3-0.2,0.5
	c1.8,3.6,3.9,7,6.3,10.2c0.1,0.1,0.3,0.2,0.4,0.1c10-3.1,20.2-7.8,30.7-15.5c0.1-0.1,0.2-0.2,0.2-0.3c2.6-26.5-4.3-49.5-18.2-69.9
	C110.8,32.3,110.7,32.3,110.7,32.3z M47.7,88.3c-6,0-11-5.6-11-12.4c0-6.8,4.9-12.4,11-12.4c6.2,0,11.1,5.6,11,12.4
	C58.8,82.8,53.9,88.3,47.7,88.3z M88.5,88.3c-6,0-11-5.6-11-12.4c0-6.8,4.9-12.4,11-12.4c6.2,0,11.1,5.6,11,12.4
	C99.6,82.8,94.7,88.3,88.5,88.3z"/>
<g id="XMLID_826_">
	<path id="XMLID_827_" class="st0" d="M-102,38.4c-1.8,0.8-3.7,1.5-5.6,2.1c2.3-2.6,4-5.6,5.1-8.9c0.2-0.7,0-1.6-0.6-2
		c-0.6-0.5-1.5-0.5-2.1-0.1c-4.1,2.4-8.5,4.2-13.1,5.2c-4.7-4.5-11-7.1-17.5-7.1c-13.8,0-25,11.2-25,25c0,1.1,0.1,2.2,0.2,3.2
		c-17.1-1.5-33-9.9-43.9-23.3c-0.4-0.5-1-0.7-1.6-0.7c-0.6,0-1.2,0.4-1.5,0.9c-2.2,3.8-3.4,8.1-3.4,12.6c0,6,2.2,11.7,5.9,16.2
		c-1.2-0.4-2.3-0.9-3.3-1.5c-0.6-0.3-1.3-0.3-1.8,0c-0.6,0.3-0.9,0.9-0.9,1.6c0,0.1,0,0.2,0,0.3c0,9,4.8,17.1,12.2,21.5
		c-0.6-0.1-1.3-0.2-1.9-0.3c-0.7-0.1-1.3,0.1-1.8,0.6c-0.4,0.5-0.6,1.2-0.4,1.8c2.7,8.5,9.8,14.8,18.3,16.8
		c-7.1,4.4-15.2,6.7-23.6,6.7c-1.8,0-3.6-0.1-5.3-0.3c-0.9-0.1-1.7,0.4-2,1.2c-0.3,0.8,0,1.7,0.8,2.2c10.9,7,23.5,10.7,36.5,10.7
		c25.5,0,41.4-12,50.2-22.1c11.1-12.6,17.4-29.2,17.4-45.6c0-0.7,0-1.4,0-2.1c4.4-3.3,8.1-7.3,11.2-11.8c0.5-0.7,0.4-1.6-0.1-2.3
		C-100.3,38.3-101.2,38.1-102,38.4z"/>
</g>
</svg>
