<?xml version="1.0" encoding="utf-8"?>
<!-- Generator: Adobe Illustrator 24.3.0, SVG Export Plug-In . SVG Version: 6.00 Build 0)  -->
<svg version="1.1" id="Layer_1" xmlns="http://www.w3.org/2000/svg" xmlns:xlink="http://www.w3.org/1999/xlink" x="0px" y="0px"
	 viewBox="0 0 800 100" style="enable-background:new 0 0 800 100;" xml:space="preserve">
<style type="text/css">
	.st0{fill:#EFB1E7;stroke:#FFFFFF;stroke-width:1.4516;stroke-miterlimit:10;}
	.st1{fill:#F9E178;stroke:#FFFFFF;stroke-width:1.4516;stroke-miterlimit:10;}
	.st2{fill:#88DBFF;stroke:#FFFFFF;stroke-width:1.4516;stroke-miterlimit:10;}
	.st3{fill:#AEFFAE;stroke:#FFFFFF;stroke-width:1.4516;stroke-miterlimit:10;}
	.st4{fill:#FFCE99;stroke:#FFFFFF;stroke-width:1.4516;stroke-miterlimit:10;}
	.st5{fill:#FFFFFF;stroke:#FFFFFF;stroke-width:1.4516;stroke-miterlimit:10;}
</style>
<g>
	<g>
		<path class="st0" d="M77.3,27.3c3.9-3.8,8.6-5.7,14.1-5.7c5.7,0,10.5,2,14.5,6c4,4,6,8.8,6,14.4v36.1H99.2V42c0-2.2-0.8-4-2.3-5.6
			c-1.5-1.5-3.4-2.3-5.6-2.3c-2.1,0-4,0.8-5.5,2.3c-1.5,1.5-2.3,3.4-2.3,5.6v36.1H71V42c0-2.2-0.8-4-2.3-5.6
			c-1.5-1.5-3.4-2.3-5.6-2.3c-2.1,0-4,0.8-5.5,2.3c-1.5,1.5-2.3,3.4-2.3,5.6v36.1H42.7V42c0-5.6,2-10.4,6-14.4c4-4,8.8-6,14.4-6
			C68.6,21.6,73.4,23.5,77.3,27.3z"/>
		<path class="st1" d="M166.4,69.8c-5.5,5.5-12.2,8.3-20,8.3s-14.4-2.8-20-8.3c-5.5-5.5-8.3-12.2-8.3-20s2.8-14.4,8.3-20
			c5.5-5.5,12.2-8.3,20-8.3s14.4,2.8,20,8.3c5.5,5.5,8.3,12.2,8.3,20S171.9,64.3,166.4,69.8z M135.4,60.9c3.1,3.1,6.8,4.6,11.1,4.6
			c4.3,0,8-1.5,11.1-4.6c3.1-3.1,4.6-6.8,4.6-11.1c0-4.4-1.5-8.1-4.6-11.2c-3.1-3.1-6.8-4.6-11.1-4.6c-4.3,0-8,1.5-11.1,4.6
			c-3.1,3.1-4.6,6.8-4.6,11.2C130.7,54.2,132.3,57.9,135.4,60.9z"/>
		<path class="st2" d="M207.6,78.1c-7.8,0-14.4-2.8-20-8.3c-5.5-5.5-8.3-12.2-8.3-20s2.8-14.4,8.3-20c5.5-5.5,12.2-8.3,20-8.3
			c5.6,0,10.7,1.5,15.4,4.6c4.6,3,8.1,7,10.3,12h-15.2c-3-2.7-6.5-4.1-10.4-4.1c-4.3,0-8,1.5-11.1,4.6c-3.1,3.1-4.6,6.8-4.6,11.2
			c0,4.3,1.5,8,4.6,11.1c3.1,3.1,6.8,4.6,11.1,4.6c4.7,0,8.7-1.8,11.9-5.4h14.4c-2.1,5.4-5.6,9.7-10.3,13
			C218.8,76.5,213.5,78.1,207.6,78.1z"/>
		<path class="st3" d="M289.2,46.7v31.4h-12.5V46.7c0-3.4-1.2-6.4-3.7-8.8c-2.5-2.4-5.4-3.7-8.9-3.7c-3.5,0-6.5,1.2-8.9,3.7
			c-2.5,2.5-3.7,5.4-3.7,8.8v31.4H239V6h12.6v19c4-2.2,8.1-3.4,12.6-3.4c6.9,0,12.8,2.5,17.7,7.3C286.7,33.9,289.2,39.8,289.2,46.7z
			"/>
		<path class="st4" d="M298.9,7.8c1.2-1.2,2.7-1.9,4.4-1.9c1.7,0,3.2,0.6,4.4,1.9c1.2,1.2,1.9,2.7,1.9,4.4c0,1.7-0.6,3.2-1.9,4.4
			c-1.2,1.2-2.7,1.9-4.4,1.9c-1.7,0-3.2-0.6-4.4-1.9c-1.2-1.2-1.9-2.7-1.9-4.4C297,10.5,297.7,9.1,298.9,7.8z M309.6,21.6v56.5H297
			V21.6H309.6z"/>
		<path class="st5" d="M346.8,49.8c0-7.8,2.8-14.4,8.3-19.9c5.5-5.5,12.2-8.2,20-8.2v12.6c-4.3,0-8,1.5-11.1,4.6
			c-3.1,3-4.6,6.7-4.6,11v28.3h-12.6V49.8z"/>
		<path class="st5" d="M425.1,69.8c-5.5,5.5-12.2,8.3-20,8.3s-14.4-2.8-20-8.3c-5.5-5.5-8.3-12.2-8.3-20s2.8-14.4,8.3-20
			c5.5-5.5,12.2-8.3,20-8.3s14.4,2.8,20,8.3c5.5,5.5,8.3,12.2,8.3,20S430.6,64.3,425.1,69.8z M394.1,60.9c3.1,3.1,6.8,4.6,11.1,4.6
			c4.3,0,8-1.5,11.1-4.6c3.1-3.1,4.6-6.8,4.6-11.1c0-4.4-1.5-8.1-4.6-11.2c-3.1-3.1-6.8-4.6-11.1-4.6c-4.3,0-8,1.5-11.1,4.6
			c-3.1,3.1-4.6,6.8-4.6,11.2C389.5,54.2,391,57.9,394.1,60.9z"/>
		<path class="st5" d="M493.9,49.9v28.2h-12.6v-4.8c-4.8,3.2-10,4.8-15.7,4.8c-7.8,0-14.4-2.8-20-8.3c-5.5-5.5-8.3-12.2-8.3-20
			s2.8-14.4,8.3-20c5.5-5.5,12.2-8.3,20-8.3s14.4,2.8,20,8.3C491.1,35.4,493.9,42.1,493.9,49.9z M476.7,38.7
			c-3.1-3.1-6.8-4.6-11.1-4.6c-4.3,0-8,1.5-11.1,4.6c-3.1,3.1-4.6,6.8-4.6,11.2c0,4.3,1.5,8,4.6,11.1c3.1,3.1,6.8,4.6,11.1,4.6
			c4.3,0,8-1.5,11.1-4.6c3.1-3.1,4.6-6.8,4.6-11.1C481.3,45.5,479.8,41.8,476.7,38.7z"/>
		<path class="st5" d="M556.6,49.9c0,7.8-2.8,14.4-8.3,20c-5.5,5.5-12.2,8.3-20,8.3s-14.4-2.8-20-8.3c-5.5-5.5-8.3-12.2-8.3-20
			s2.8-14.4,8.3-20c5.5-5.5,12.2-8.3,20-8.3c5.7,0,10.9,1.6,15.7,4.8V6h12.6V49.9z M517.2,60.9c3.1,3.1,6.8,4.6,11.1,4.6
			c4.3,0,8-1.5,11.1-4.6c3.1-3.1,4.6-6.8,4.6-11.1c0-4.3-1.5-8-4.6-11.1c-3.1-3.1-6.8-4.6-11.1-4.6c-4.3,0-8,1.5-11.1,4.6
			c-3.1,3.1-4.6,6.8-4.6,11.1C512.6,54.2,514.2,57.9,517.2,60.9z"/>
		<path class="st5" d="M597.5,27.3c3.9-3.8,8.6-5.7,14.1-5.7c5.7,0,10.5,2,14.5,6c4,4,6,8.8,6,14.4v36.1h-12.6V42
			c0-2.2-0.8-4-2.3-5.6c-1.5-1.5-3.4-2.3-5.6-2.3c-2.1,0-4,0.8-5.5,2.3c-1.5,1.5-2.3,3.4-2.3,5.6v36.1h-12.6V42c0-2.2-0.8-4-2.3-5.6
			c-1.5-1.5-3.4-2.3-5.6-2.3c-2.1,0-4,0.8-5.5,2.3c-1.5,1.5-2.3,3.4-2.3,5.6v36.1h-12.6V42c0-5.6,2-10.4,6-14.4c4-4,8.8-6,14.4-6
			C588.9,21.6,593.6,23.5,597.5,27.3z"/>
		<path class="st5" d="M694.8,49.9v28.2h-12.6v-4.8c-4.8,3.2-10,4.8-15.7,4.8c-7.8,0-14.4-2.8-20-8.3c-5.5-5.5-8.3-12.2-8.3-20
			s2.8-14.4,8.3-20c5.5-5.5,12.2-8.3,20-8.3s14.4,2.8,20,8.3C692,35.4,694.8,42.1,694.8,49.9z M677.6,38.7
			c-3.1-3.1-6.8-4.6-11.1-4.6c-4.3,0-8,1.5-11.1,4.6c-3.1,3.1-4.6,6.8-4.6,11.2c0,4.3,1.5,8,4.6,11.1c3.1,3.1,6.8,4.6,11.1,4.6
			c4.3,0,8-1.5,11.1-4.6c3.1-3.1,4.6-6.8,4.6-11.1C682.2,45.5,680.7,41.8,677.6,38.7z"/>
		<path class="st5" d="M701.1,49.9c0-7.8,2.8-14.4,8.3-20c5.5-5.5,12.2-8.3,20-8.3c7.8,0,14.4,2.8,20,8.3c5.5,5.5,8.3,12.2,8.3,20
			s-2.8,14.4-8.3,20c-5.5,5.5-12.2,8.3-20,8.3c-5.8,0-11-1.6-15.7-4.8v27h-12.6V49.9z M740.4,38.8c-3-3.1-6.7-4.6-11.1-4.6
			c-4.4,0-8.1,1.5-11.1,4.6c-3,3.1-4.6,6.8-4.6,11.1c0,4.3,1.5,8,4.6,11.1c3,3.1,6.7,4.6,11.1,4.6c4.4,0,8.1-1.5,11.1-4.6
			c3-3.1,4.6-6.8,4.6-11.1C745,45.6,743.5,41.9,740.4,38.8z"/>
	</g>
</g>
</svg>
