<?xml version="1.0" encoding="utf-8"?>
<!-- Generator: Adobe Illustrator 24.3.0, SVG Export Plug-In . SVG Version: 6.00 Build 0)  -->
<svg version="1.1" id="Layer_1" xmlns="http://www.w3.org/2000/svg" xmlns:xlink="http://www.w3.org/1999/xlink" x="0px" y="0px"
	 viewBox="0 0 800 100" style="enable-background:new 0 0 800 100;" xml:space="preserve">
<style type="text/css">
	.st0{fill:#EFB1E7;stroke:#FFFFFF;stroke-width:2.1784;stroke-miterlimit:10;}
	.st1{fill:#F9E178;stroke:#FFFFFF;stroke-width:2.1784;stroke-miterlimit:10;}
	.st2{fill:#88DBFF;stroke:#FFFFFF;stroke-width:2.1784;stroke-miterlimit:10;}
	.st3{fill:#AEFFAE;stroke:#FFFFFF;stroke-width:2.1784;stroke-miterlimit:10;}
	.st4{fill:#FFCE99;stroke:#FFFFFF;stroke-width:2.1784;stroke-miterlimit:10;}
	.st5{fill:#99A2FF;stroke:#FFFFFF;stroke-width:2.1784;stroke-miterlimit:10;}
</style>
<g>
	<g>
		<path class="st0" d="M82,31.1c5.1-5,11.3-7.5,18.5-7.5c7.5,0,13.8,2.6,19.1,7.9c5.2,5.2,7.9,11.6,7.9,18.9V98h-16.5V50.4
			c0-2.9-1-5.3-3-7.3c-2-2-4.5-3-7.3-3c-2.8,0-5.2,1-7.2,3c-2,2-3,4.5-3,7.3V98H73.7V50.4c0-2.9-1-5.3-3-7.3c-2-2-4.5-3-7.3-3
			c-2.8,0-5.2,1-7.2,3c-2,2-3,4.5-3,7.3V98H36.6V50.4c0-7.4,2.6-13.7,7.9-18.9c5.2-5.2,11.6-7.9,18.9-7.9
			C70.7,23.6,76.9,26.1,82,31.1z"/>
		<path class="st1" d="M199.3,87.1C192,94.4,183.3,98,173,98c-10.3,0-19-3.6-26.3-10.9c-7.3-7.3-10.9-16-10.9-26.3s3.6-19,10.9-26.3
			c7.3-7.3,16-10.9,26.3-10.9c10.3,0,19,3.6,26.3,10.9c7.3,7.3,10.9,16,10.9,26.3S206.6,79.8,199.3,87.1z M158.5,75.4
			c4,4,8.9,6.1,14.6,6.1c5.7,0,10.5-2,14.6-6.1c4-4,6.1-8.9,6.1-14.6c0-5.7-2-10.6-6.1-14.7c-4-4-8.9-6.1-14.6-6.1
			c-5.7,0-10.5,2-14.6,6.1c-4,4-6.1,8.9-6.1,14.7C152.4,66.5,154.4,71.3,158.5,75.4z"/>
		<path class="st2" d="M214.6,74.3h16.5c0,1.9,0.7,3.6,2.1,5c1.4,1.4,3.1,2.1,5,2.1c1.9,0,3.6-0.7,5-2.1s2.1-3.1,2.1-5
			c0-2.3-1.1-4.3-3.3-6.1c-0.9-0.6-2.4-1.5-4.7-2.5c-2.3-1-4.4-2.1-6.5-3.3c-2.1-1.1-4.2-2.5-6.3-4.1c-2.1-1.6-3.8-3.6-5.1-6
			c-1.3-2.4-2-5.1-2-8c0-5.7,2-10.6,6.1-14.7c4.1-4,9-6.1,14.6-6.1c5.7,0,10.5,2,14.6,6.1c4.1,4,6.1,8.9,6.1,14.7h-16.4
			c0-1.2-0.4-2.2-1.3-3c-0.9-0.9-1.9-1.3-3-1.3s-2.2,0.4-3,1.3c-0.8,0.9-1.2,1.9-1.2,3c0,1.7,0.7,3,2.2,3.7c1.3,0.7,3.2,1.7,5.8,2.9
			c2.5,1.2,4.5,2.2,6.1,2.9c1.5,0.7,3.3,1.8,5.2,3.2s3.5,2.8,4.6,4.3c1.1,1.4,2,3.3,2.8,5.5c0.8,2.3,1.2,4.7,1.2,7.5
			c0,6.5-2.3,12.1-6.9,16.7c-4.6,4.6-10.2,6.9-16.7,6.9s-12.1-2.3-16.7-6.9C216.9,86.4,214.6,80.9,214.6,74.3z"/>
		<path class="st3" d="M336.3,56.6V98h-16.4V56.6c0-4.5-1.6-8.4-4.8-11.6c-3.2-3.2-7.1-4.8-11.7-4.8c-4.6,0-8.5,1.6-11.7,4.8
			c-3.2,3.2-4.8,7.1-4.8,11.6V98h-16.5V3h16.5v25.1c5.2-3,10.7-4.4,16.5-4.4c9.1,0,16.9,3.2,23.3,9.7
			C333.1,39.8,336.3,47.5,336.3,56.6z"/>
		<path class="st4" d="M349.1,5.5c1.6-1.6,3.6-2.4,5.8-2.4c2.3,0,4.2,0.8,5.8,2.4c1.6,1.6,2.4,3.6,2.4,5.8c0,2.3-0.8,4.2-2.4,5.8
			c-1.6,1.6-3.6,2.4-5.8,2.4c-2.3,0-4.2-0.8-5.8-2.4c-1.6-1.6-2.4-3.6-2.4-5.8C346.7,9,347.5,7.1,349.1,5.5z M363.2,23.6V98h-16.5
			V23.6H363.2z"/>
		<path class="st5" d="M457.6,31.1c5.1-5,11.3-7.5,18.5-7.5c7.5,0,13.8,2.6,19.1,7.9c5.2,5.2,7.9,11.6,7.9,18.9V98h-16.5V50.4
			c0-2.9-1-5.3-3-7.3c-2-2-4.5-3-7.3-3c-2.8,0-5.2,1-7.2,3c-2,2-3,4.5-3,7.3V98h-16.5V50.4c0-2.9-1-5.3-3-7.3c-2-2-4.5-3-7.3-3
			c-2.8,0-5.2,1-7.2,3c-2,2-3,4.5-3,7.3V98h-16.5V50.4c0-7.4,2.6-13.7,7.9-18.9c5.2-5.2,11.6-7.9,18.9-7.9
			C446.3,23.6,452.5,26.1,457.6,31.1z"/>
		<path class="st0" d="M574.9,87.1c-7.3,7.3-16,10.9-26.3,10.9s-19-3.6-26.3-10.9c-7.3-7.3-10.9-16-10.9-26.3s3.6-19,10.9-26.3
			c7.3-7.3,16-10.9,26.3-10.9s19,3.6,26.3,10.9c7.3,7.3,10.9,16,10.9,26.3S582.2,79.8,574.9,87.1z M534.1,75.4c4,4,8.9,6.1,14.6,6.1
			c5.7,0,10.5-2,14.6-6.1c4-4,6.1-8.9,6.1-14.6c0-5.7-2-10.6-6.1-14.7c-4-4-8.9-6.1-14.6-6.1c-5.7,0-10.5,2-14.6,6.1
			c-4,4-6.1,8.9-6.1,14.7C528,66.5,530,71.3,534.1,75.4z"/>
		<path class="st3" d="M629.2,98c-10.3,0-19-3.6-26.3-10.9c-7.3-7.3-10.9-16-10.9-26.3s3.6-19,10.9-26.3c7.3-7.3,16-10.9,26.3-10.9
			c7.4,0,14.1,2,20.2,6c6.1,4,10.6,9.3,13.6,15.8h-20c-4-3.6-8.5-5.4-13.8-5.4c-5.7,0-10.5,2-14.6,6.1c-4,4-6.1,8.9-6.1,14.7
			c0,5.7,2,10.5,6.1,14.6c4,4,8.9,6.1,14.6,6.1c6.2,0,11.4-2.4,15.6-7.1h19c-2.8,7.1-7.3,12.8-13.6,17.1C644,95.8,636.9,98,629.2,98
			z"/>
		<path class="st2" d="M736.5,56.6V98h-16.4V56.6c0-4.5-1.6-8.4-4.8-11.6c-3.2-3.2-7.1-4.8-11.7-4.8c-4.6,0-8.5,1.6-11.7,4.8
			c-3.2,3.2-4.8,7.1-4.8,11.6V98h-16.5V3H687v25.1c5.2-3,10.7-4.4,16.5-4.4c9.1,0,16.9,3.2,23.3,9.7
			C733.3,39.8,736.5,47.5,736.5,56.6z"/>
		<path class="st1" d="M749.3,5.5c1.6-1.6,3.6-2.4,5.8-2.4c2.3,0,4.2,0.8,5.8,2.4c1.6,1.6,2.4,3.6,2.4,5.8c0,2.3-0.8,4.2-2.4,5.8
			c-1.6,1.6-3.6,2.4-5.8,2.4c-2.3,0-4.2-0.8-5.8-2.4c-1.6-1.6-2.4-3.6-2.4-5.8C746.9,9,747.7,7.1,749.3,5.5z M763.4,23.6V98h-16.5
			V23.6H763.4z"/>
	</g>
</g>
</svg>
