<?xml version="1.0" encoding="utf-8"?>
<!-- Generator: Adobe Illustrator 24.3.0, SVG Export Plug-In . SVG Version: 6.00 Build 0)  -->
<svg version="1.1" id="Layer_1" xmlns="http://www.w3.org/2000/svg" xmlns:xlink="http://www.w3.org/1999/xlink" x="0px" y="0px"
	 viewBox="0 0 141.7 141.7" style="enable-background:new 0 0 141.7 141.7;" xml:space="preserve">
<style type="text/css">
	.st0{fill:#FFFFFF;}
</style>
<g>
	<path class="st0" d="M19.5,73.8l0.4-0.6l25.3-39.5c0.4-0.6,1.2-0.6,1.6,0.2c4.3,9.5,7.8,21.2,6.2,28.6c-0.8,3.1-2.7,7.2-5.1,10.9
		c-0.2,0.6-0.6,1.2-1,1.6c-0.2,0.2-0.4,0.4-0.8,0.4H20.1C19.5,75.1,19.2,74.3,19.5,73.8z"/>
	<path class="st0" d="M132.2,81.1v6.2c0,0.4-0.2,0.6-0.6,0.8c-1.9,0.8-8.8,3.9-11.5,7.8c-7.2,9.9-12.6,24.1-24.7,24.1H44.8
		c-17.9,0-32.5-14.6-32.5-32.7v-0.6c0-0.4,0.4-0.8,0.8-0.8h28.4c0.6,0,1,0.6,1,1c-0.2,1.8,0.2,3.7,1,5.4c1.8,3.5,5.3,5.4,8.9,5.4h14
		V87H52.6c-0.8,0-1.2-0.8-0.8-1.4c0.2-0.2,0.4-0.4,0.6-0.8c1.4-1.9,3.1-4.7,5.1-8c1.4-2.1,2.5-4.7,3.5-7c0.2-0.4,0.4-0.8,0.6-1.4
		c0.2-0.8,0.6-1.6,0.8-2.1c0.2-0.6,0.4-1.2,0.6-1.8c0.4-1.9,0.6-4.1,0.6-6.4c0-0.8,0-1.8-0.2-2.7c0-1-0.2-1.9-0.2-2.9
		c0-0.8-0.2-1.8-0.4-2.5c-0.2-1.4-0.4-2.5-0.8-3.9l-0.2-0.4C61.6,45,61.4,44,61,43.2c-0.8-2.7-1.8-5.4-2.7-7.8
		c-0.4-1-0.8-1.9-1.2-2.9c-0.6-1.4-1.2-2.7-1.8-3.9c-0.2-0.6-0.6-1-0.8-1.6c-0.2-0.6-0.6-1.2-0.8-1.8c-0.2-0.4-0.4-0.8-0.6-1.2
		L51.4,21c-0.2-0.4,0.2-1,0.6-0.8l10.7,2.9l0,0l0,0l1.4,0.4l1.6,0.4l0.6,0.2v-6.4c0-3.1,2.5-5.6,5.4-5.6c1.6,0,2.9,0.6,3.9,1.6
		c1,1,1.6,2.3,1.6,3.9v9.3l1.2,0.4c0,0,0.2,0,0.2,0.2c0.2,0.2,0.6,0.6,1.2,1c0.4,0.4,0.8,0.8,1.4,1.2c1,0.8,2.3,1.9,3.7,3.1
		c0.4,0.4,0.8,0.6,1,1c1.8,1.6,3.7,3.5,5.6,5.6c0.6,0.6,1,1.2,1.6,1.8c0.6,0.6,1,1.4,1.6,1.9c0.6,0.8,1.4,1.8,1.9,2.5
		c0.2,0.4,0.6,0.8,0.8,1.4c0.8,1.2,1.4,2.3,2.1,3.5c0.2,0.6,0.6,1.2,0.8,1.8c0.8,1.6,1.4,3.1,1.6,4.9c0.2,0.4,0.2,0.8,0.2,1l0,0
		c0.2,0.4,0.2,1,0.2,1.6c0.2,1.8,0,3.3-0.2,5.1c-0.2,0.8-0.4,1.4-0.6,2.1c-0.2,0.6-0.4,1.4-0.8,2.1c-0.6,1.4-1.4,2.7-2.1,4.1
		c-0.2,0.4-0.6,1-1,1.6c-0.4,0.6-0.8,1-1,1.6c-0.4,0.6-1,1.2-1.4,1.8c-0.4,0.6-0.8,1.2-1.4,1.8c-0.6,0.8-1.4,1.6-1.9,2.3
		c-0.4,0.4-0.8,1-1.4,1.4c-0.4,0.4-0.8,1-1.4,1.4c-0.6,0.6-1.2,1.2-1.8,1.6l-1.2,1c-0.2,0.2-0.4,0.2-0.6,0.2h-8.6v10.9h10.7
		c2.3,0,4.7-0.8,6.4-2.3c0.6-0.6,3.3-2.9,6.6-6.4c0.2-0.2,0.2-0.2,0.4-0.2l30.2-9.1C131.8,80,132.2,80.6,132.2,81.1z"/>
</g>
</svg>
