<?xml version="1.0" encoding="utf-8"?>
<!-- Generator: Adobe Illustrator 24.3.0, SVG Export Plug-In . SVG Version: 6.00 Build 0)  -->
<svg version="1.1" id="Layer_1" xmlns="http://www.w3.org/2000/svg" xmlns:xlink="http://www.w3.org/1999/xlink" x="0px" y="0px"
	 viewBox="0 0 800 100" style="enable-background:new 0 0 800 100;" xml:space="preserve">
<style type="text/css">
	.st0{fill:#EFB1E7;stroke:#FFFFFF;stroke-width:1.4516;stroke-miterlimit:10;}
	.st1{fill:#F9E178;stroke:#FFFFFF;stroke-width:1.4516;stroke-miterlimit:10;}
	.st2{fill:#88DBFF;stroke:#FFFFFF;stroke-width:1.4516;stroke-miterlimit:10;}
	.st3{fill:#AEFFAE;stroke:#FFFFFF;stroke-width:1.4516;stroke-miterlimit:10;}
	.st4{fill:#FFCE99;stroke:#FFFFFF;stroke-width:1.4516;stroke-miterlimit:10;}
	.st5{fill:#FFFFFF;stroke:#FFFFFF;stroke-width:1.4516;stroke-miterlimit:10;}
</style>
<g>
	<g>
		<path class="st0" d="M258.7,47.4c0-6.5,2.3-12.1,6.9-16.7c4.6-4.6,10.2-6.9,16.7-6.9c6.5,0,12.1,2.3,16.7,6.9
			c4.6,4.6,6.9,10.2,6.9,16.7c0,6.5-2.3,12.1-6.9,16.7c-4.6,4.6-10.2,6.9-16.7,6.9c-4.8,0-9.2-1.3-13.1-4v22.6h-10.5V47.4z
			 M291.6,38.2c-2.5-2.6-5.6-3.8-9.3-3.8c-3.7,0-6.7,1.3-9.3,3.8c-2.5,2.6-3.8,5.6-3.8,9.2c0,3.6,1.3,6.7,3.8,9.2
			c2.5,2.6,5.6,3.8,9.3,3.8c3.7,0,6.7-1.3,9.3-3.8c2.5-2.6,3.8-5.6,3.8-9.2C295.4,43.8,294.2,40.7,291.6,38.2z"/>
		<path class="st1" d="M353.3,44.7V71h-10.4V44.7c0-2.9-1-5.3-3.1-7.4c-2-2-4.5-3.1-7.4-3.1c-2.9,0-5.4,1-7.4,3.1
			c-2,2-3.1,4.5-3.1,7.4V71h-10.5V10.7h10.5v15.9c3.3-1.9,6.8-2.8,10.5-2.8c5.8,0,10.7,2,14.8,6.1C351.3,34,353.3,39,353.3,44.7z"/>
		<path class="st2" d="M405.8,47.4V71h-10.5v-4c-4,2.7-8.4,4-13.1,4c-6.5,0-12.1-2.3-16.7-6.9c-4.6-4.6-6.9-10.2-6.9-16.7
			c0-6.5,2.3-12.1,6.9-16.7c4.6-4.6,10.2-6.9,16.7-6.9c6.5,0,12.1,2.3,16.7,6.9C403.5,35.3,405.8,40.9,405.8,47.4z M391.4,38.1
			c-2.6-2.6-5.6-3.8-9.2-3.8c-3.6,0-6.7,1.3-9.2,3.8c-2.6,2.6-3.8,5.7-3.8,9.3c0,3.6,1.3,6.7,3.8,9.2c2.6,2.6,5.6,3.8,9.2,3.8
			c3.6,0,6.7-1.3,9.2-3.8c2.6-2.6,3.8-5.6,3.8-9.2C395.3,43.8,394,40.7,391.4,38.1z"/>
		<path class="st3" d="M411.1,56h10.5c0,1.2,0.4,2.3,1.3,3.2c0.9,0.9,1.9,1.3,3.2,1.3c1.2,0,2.3-0.4,3.2-1.3
			c0.9-0.9,1.3-1.9,1.3-3.2c0-1.4-0.7-2.7-2.1-3.8c-0.5-0.4-1.5-0.9-3-1.6c-1.4-0.7-2.8-1.4-4.1-2.1c-1.3-0.7-2.7-1.6-4-2.6
			c-1.3-1-2.4-2.3-3.3-3.8c-0.8-1.5-1.3-3.2-1.3-5.1c0-3.7,1.3-6.8,3.9-9.3c2.6-2.6,5.7-3.8,9.3-3.8c3.6,0,6.7,1.3,9.3,3.8
			c2.6,2.6,3.9,5.7,3.9,9.3h-10.4c0-0.7-0.3-1.4-0.8-1.9c-0.5-0.5-1.2-0.8-1.9-0.8c-0.7,0-1.4,0.3-1.9,0.8c-0.5,0.5-0.8,1.2-0.8,1.9
			c0,1.1,0.5,1.9,1.4,2.4c0.8,0.4,2.1,1,3.7,1.8c1.6,0.8,2.9,1.4,3.8,1.9c1,0.5,2.1,1.1,3.3,2c1.3,0.9,2.2,1.8,2.9,2.7
			c0.7,0.9,1.3,2.1,1.8,3.5c0.5,1.4,0.7,3,0.7,4.7c0,4.1-1.5,7.7-4.4,10.6c-2.9,2.9-6.5,4.4-10.6,4.4s-7.7-1.5-10.6-4.4
			C412.6,63.7,411.1,60.1,411.1,56z"/>
		<path class="st4" d="M451.3,30.7c4.6-4.6,10.2-6.9,16.7-6.9c6.5,0,12.1,2.3,16.7,6.9c4.6,4.6,6.9,10.2,6.9,16.7
			c0,1.1-0.1,2.1-0.2,3.2h-36.1c0.7,2.9,2.2,5.2,4.6,7.1c2.4,1.9,5.1,2.8,8.1,2.8c3.2,0,6-1,8.4-3.1h12.9c-1.9,4.1-4.8,7.4-8.6,9.9
			c-3.8,2.5-8.1,3.7-12.7,3.7c-6.5,0-12.1-2.3-16.7-6.9c-4.6-4.6-6.9-10.2-6.9-16.7C444.4,40.9,446.7,35.3,451.3,30.7z M455.7,42.7
			h24.5c-0.9-2.5-2.5-4.6-4.7-6.1c-2.2-1.6-4.7-2.4-7.5-2.4c-2.8,0-5.3,0.8-7.5,2.4C458.3,38.2,456.7,40.2,455.7,42.7z"/>
		<path class="st5" d="M541.6,71h-10.5V21.2h-8V10.7h18.5V71z"/>
	</g>
</g>
</svg>
