<?xml version="1.0" encoding="utf-8"?>
<!-- Generator: Adobe Illustrator 24.3.0, SVG Export Plug-In . SVG Version: 6.00 Build 0)  -->
<svg version="1.1" id="Layer_1" xmlns="http://www.w3.org/2000/svg" xmlns:xlink="http://www.w3.org/1999/xlink" x="0px" y="0px"
	 viewBox="0 0 800 100" style="enable-background:new 0 0 800 100;" xml:space="preserve">
<style type="text/css">
	.st0{fill:#EFB1E7;stroke:#FFFFFF;stroke-width:1.4516;stroke-miterlimit:10;}
	.st1{fill:#F9E178;stroke:#FFFFFF;stroke-width:1.4516;stroke-miterlimit:10;}
	.st2{fill:#88DBFF;stroke:#FFFFFF;stroke-width:1.4516;stroke-miterlimit:10;}
	.st3{fill:#AEFFAE;stroke:#FFFFFF;stroke-width:1.4516;stroke-miterlimit:10;}
	.st4{fill:#FFCE99;stroke:#FFFFFF;stroke-width:1.4516;stroke-miterlimit:10;}
	.st5{fill:#FFFFFF;stroke:#FFFFFF;stroke-width:1.4516;stroke-miterlimit:10;}
</style>
<g>
	<g>
		<path class="st0" d="M247.6,47.4c0-6.5,2.3-12.1,6.9-16.7c4.6-4.6,10.2-6.9,16.7-6.9c6.5,0,12.1,2.3,16.7,6.9
			c4.6,4.6,6.9,10.2,6.9,16.7s-2.3,12.1-6.9,16.7c-4.6,4.6-10.2,6.9-16.7,6.9c-4.8,0-9.2-1.3-13.1-4v22.6h-10.5V47.4z M280.5,38.2
			c-2.5-2.6-5.6-3.8-9.3-3.8c-3.7,0-6.7,1.3-9.3,3.8c-2.5,2.6-3.8,5.7-3.8,9.2c0,3.6,1.3,6.7,3.8,9.2c2.5,2.6,5.6,3.8,9.3,3.8
			c3.7,0,6.7-1.3,9.3-3.8c2.5-2.6,3.8-5.6,3.8-9.2C284.3,43.8,283.1,40.7,280.5,38.2z"/>
		<path class="st1" d="M342.2,44.7V71h-10.4V44.7c0-2.9-1-5.3-3.1-7.4c-2-2-4.5-3.1-7.4-3.1c-2.9,0-5.4,1-7.4,3.1
			c-2,2-3.1,4.5-3.1,7.4V71h-10.5V10.7h10.5v15.9c3.3-1.9,6.8-2.8,10.5-2.8c5.8,0,10.7,2,14.8,6.1C340.2,34,342.2,39,342.2,44.7z"/>
		<path class="st2" d="M394.7,47.4V71h-10.5v-4c-4,2.7-8.4,4-13.1,4c-6.5,0-12.1-2.3-16.7-6.9c-4.6-4.6-6.9-10.2-6.9-16.7
			s2.3-12.1,6.9-16.7c4.6-4.6,10.2-6.9,16.7-6.9c6.5,0,12.1,2.3,16.7,6.9C392.4,35.3,394.7,40.9,394.7,47.4z M380.3,38.1
			c-2.6-2.6-5.6-3.8-9.2-3.8c-3.6,0-6.7,1.3-9.2,3.8c-2.6,2.6-3.8,5.7-3.8,9.3c0,3.6,1.3,6.7,3.8,9.2c2.6,2.6,5.6,3.8,9.2,3.8
			c3.6,0,6.7-1.3,9.2-3.8c2.6-2.6,3.8-5.6,3.8-9.2C384.2,43.8,382.9,40.7,380.3,38.1z"/>
		<path class="st3" d="M400,56h10.5c0,1.2,0.4,2.3,1.3,3.2c0.9,0.9,1.9,1.3,3.2,1.3c1.2,0,2.3-0.4,3.2-1.3c0.9-0.9,1.3-1.9,1.3-3.2
			c0-1.4-0.7-2.7-2.1-3.8c-0.5-0.4-1.5-0.9-3-1.6c-1.4-0.7-2.8-1.4-4.1-2.1c-1.3-0.7-2.7-1.6-4-2.6c-1.3-1-2.4-2.3-3.3-3.8
			c-0.8-1.5-1.3-3.2-1.3-5.1c0-3.7,1.3-6.8,3.9-9.3c2.6-2.6,5.7-3.8,9.3-3.8c3.6,0,6.7,1.3,9.3,3.8c2.6,2.6,3.9,5.7,3.9,9.3h-10.4
			c0-0.7-0.3-1.4-0.8-1.9c-0.5-0.5-1.2-0.8-1.9-0.8c-0.7,0-1.4,0.3-1.9,0.8s-0.8,1.2-0.8,1.9c0,1.1,0.5,1.9,1.4,2.4
			c0.8,0.4,2.1,1,3.7,1.8c1.6,0.8,2.9,1.4,3.8,1.8s2.1,1.1,3.3,2c1.3,0.9,2.2,1.8,2.9,2.7c0.7,0.9,1.3,2.1,1.8,3.5
			c0.5,1.4,0.7,3,0.7,4.7c0,4.1-1.5,7.7-4.4,10.6c-2.9,2.9-6.5,4.4-10.6,4.4s-7.7-1.5-10.6-4.4C401.5,63.7,400,60.1,400,56z"/>
		<path class="st4" d="M440.2,30.7c4.6-4.6,10.2-6.9,16.7-6.9c6.5,0,12.1,2.3,16.7,6.9c4.6,4.6,6.9,10.2,6.9,16.7
			c0,1.1-0.1,2.1-0.2,3.2h-36.1c0.7,2.9,2.2,5.2,4.6,7.1c2.4,1.9,5.1,2.8,8.1,2.8c3.2,0,6-1,8.4-3.1h12.9c-1.9,4.1-4.8,7.4-8.6,9.9
			c-3.8,2.5-8.1,3.7-12.7,3.7c-6.5,0-12.1-2.3-16.7-6.9c-4.6-4.6-6.9-10.2-6.9-16.7S435.6,35.3,440.2,30.7z M444.6,42.7h24.5
			c-0.9-2.5-2.5-4.6-4.7-6.1c-2.2-1.6-4.7-2.4-7.5-2.4c-2.8,0-5.3,0.8-7.5,2.4C447.2,38.2,445.6,40.2,444.6,42.7z"/>
		<path class="st5" d="M512.5,71v-6.7L539.1,39c2-1.8,3-4.2,3-7.3c0-2.9-1-5.4-3.1-7.4c-2-2-4.5-3.1-7.4-3.1c-3.7,0-6.6,1.5-8.7,4.6
			h-11.5c1.3-4.4,3.8-8,7.5-10.8c3.7-2.8,7.9-4.3,12.6-4.3c5.8,0,10.8,2,14.9,6.1c4.1,4.1,6.1,9.1,6.1,14.9c0,6-2.2,11.1-6.7,15.2
			l-14.3,13.5h21V71H512.5z"/>
	</g>
</g>
</svg>
