<?xml version="1.0" encoding="utf-8"?>
<!-- Generator: Adobe Illustrator 24.3.0, SVG Export Plug-In . SVG Version: 6.00 Build 0)  -->
<svg version="1.1" id="Layer_1" xmlns="http://www.w3.org/2000/svg" xmlns:xlink="http://www.w3.org/1999/xlink" x="0px" y="0px"
	 viewBox="0 0 141.7 141.7" style="enable-background:new 0 0 141.7 141.7;" xml:space="preserve">
<style type="text/css">
	.st0{fill:#FFFFFF;}
</style>
<g id="XMLID_826_">
	<path id="XMLID_827_" class="st0" d="M122,38.4c-1.8,0.8-3.7,1.5-5.6,2.1c2.3-2.6,4-5.6,5.1-8.9c0.2-0.7,0-1.6-0.6-2
		c-0.6-0.5-1.5-0.5-2.1-0.1c-4.1,2.4-8.5,4.2-13.1,5.2c-4.7-4.5-11-7.1-17.5-7.1c-13.8,0-25,11.2-25,25c0,1.1,0.1,2.2,0.2,3.2
		c-17.1-1.5-33-9.9-43.9-23.3c-0.4-0.5-1-0.7-1.6-0.7c-0.6,0-1.2,0.4-1.5,0.9c-2.2,3.8-3.4,8.1-3.4,12.6c0,6,2.2,11.7,5.9,16.2
		c-1.2-0.4-2.3-0.9-3.3-1.5c-0.6-0.3-1.3-0.3-1.8,0c-0.6,0.3-0.9,0.9-0.9,1.6c0,0.1,0,0.2,0,0.3c0,9,4.8,17.1,12.2,21.5
		c-0.6-0.1-1.3-0.2-1.9-0.3c-0.7-0.1-1.3,0.1-1.8,0.6c-0.4,0.5-0.6,1.2-0.4,1.8c2.7,8.5,9.8,14.8,18.3,16.8
		c-7.1,4.4-15.2,6.7-23.6,6.7c-1.8,0-3.6-0.1-5.3-0.3c-0.9-0.1-1.7,0.4-2,1.2c-0.3,0.8,0,1.7,0.8,2.2c10.9,7,23.5,10.7,36.5,10.7
		c25.5,0,41.4-12,50.2-22.1c11.1-12.6,17.4-29.2,17.4-45.6c0-0.7,0-1.4,0-2.1c4.4-3.3,8.1-7.3,11.2-11.8c0.5-0.7,0.4-1.6-0.1-2.3
		C123.7,38.3,122.8,38.1,122,38.4z"/>
</g>
</svg>
