<?xml version="1.0" encoding="utf-8"?>
<!-- Generator: Adobe Illustrator 24.3.0, SVG Export Plug-In . SVG Version: 6.00 Build 0)  -->
<svg version="1.1" id="Layer_1" xmlns="http://www.w3.org/2000/svg" xmlns:xlink="http://www.w3.org/1999/xlink" x="0px" y="0px"
	 viewBox="0 0 897.4 85" style="enable-background:new 0 0 897.4 85;" xml:space="preserve">
<style type="text/css">
	.st0{fill:#FFFFFF;stroke:#FFFFFF;stroke-width:1.4104;stroke-miterlimit:10;}
	.st1{fill:#EFB1E7;stroke:#FFFFFF;stroke-width:2.1637;stroke-miterlimit:10;}
	.st2{fill:#F9E178;stroke:#FFFFFF;stroke-width:2.1637;stroke-miterlimit:10;}
	.st3{fill:#88DBFF;stroke:#FFFFFF;stroke-width:2.1637;stroke-miterlimit:10;}
	.st4{fill:#AEFFAE;stroke:#FFFFFF;stroke-width:2.1637;stroke-miterlimit:10;}
	.st5{fill:#FFCE99;stroke:#FFFFFF;stroke-width:2.1637;stroke-miterlimit:10;}
	.st6{fill:#99A2FF;stroke:#FFFFFF;stroke-width:2.1637;stroke-miterlimit:10;}
</style>
<g>
	<g>
		<path class="st0" d="M37.9,70.6c-3.8,3.6-8.2,5.4-13.3,5.4c-5.2,0-9.7-1.9-13.5-5.6c-3.7-3.8-5.6-8.3-5.6-13.5V23.1h11.8v33.7
			c0,2,0.7,3.8,2.1,5.2c1.4,1.4,3.1,2.2,5.2,2.2c2,0,3.8-0.7,5.2-2.2c1.4-1.4,2.2-3.2,2.2-5.2V23.1h11.8v33.7c0,2,0.7,3.8,2.1,5.2
			c1.4,1.4,3.1,2.2,5.2,2.2c2,0,3.8-0.7,5.2-2.2c1.4-1.4,2.2-3.2,2.2-5.2V23.1h11.8v33.8c0,5.2-1.9,9.7-5.6,13.5
			c-3.8,3.7-8.3,5.6-13.5,5.6C46,76,41.6,74.2,37.9,70.6z"/>
		<path class="st0" d="M124.5,46.6V76h-11.7V46.6c0-3.2-1.1-6-3.4-8.2c-2.3-2.3-5.1-3.4-8.3-3.4c-3.3,0-6,1.1-8.3,3.4
			c-2.3,2.3-3.4,5-3.4,8.2V76H77.5V8.5h11.8v17.8c3.7-2.1,7.6-3.1,11.8-3.1c6.5,0,12,2.3,16.6,6.9C122.2,34.6,124.5,40.1,124.5,46.6
			z"/>
		<path class="st0" d="M183.2,49.6V76h-11.8v-4.5c-4.5,3-9.4,4.5-14.7,4.5c-7.3,0-13.5-2.6-18.7-7.7c-5.2-5.2-7.7-11.4-7.7-18.7
			c0-7.3,2.6-13.5,7.7-18.7c5.2-5.2,11.4-7.7,18.7-7.7c7.3,0,13.5,2.6,18.7,7.7C180.7,36.1,183.2,42.3,183.2,49.6z M167.2,39.1
			c-2.9-2.9-6.3-4.3-10.4-4.3c-4,0-7.5,1.4-10.4,4.3c-2.9,2.9-4.3,6.4-4.3,10.4c0,4,1.4,7.5,4.3,10.4c2.9,2.9,6.3,4.3,10.4,4.3
			c4,0,7.5-1.4,10.4-4.3c2.9-2.9,4.3-6.3,4.3-10.4C171.5,45.5,170,42,167.2,39.1z"/>
		<path class="st0" d="M203.8,8.5v14.1h5.3v8.8h-5.3v27c0,1.7,0.6,3.1,1.7,4.2c1.1,1.1,2.5,1.7,4.1,1.7h3V76h-3
			c-4.9,0-9-1.7-12.4-5.2c-3.4-3.5-5.1-7.6-5.1-12.5v-27h-5.3v-8.8h5.3V8.5H203.8z"/>
		<path class="st0" d="M248.9,10.2c1.2-1.2,2.5-1.7,4.1-1.7c1.6,0,3,0.6,4.1,1.7c1.2,1.2,1.7,2.5,1.7,4.1c0,1.6-0.6,3-1.7,4.1
			c-1.2,1.2-2.5,1.7-4.1,1.7c-1.6,0-3-0.6-4.1-1.7s-1.7-2.5-1.7-4.1C247.2,12.8,247.8,11.4,248.9,10.2z M258.9,23.1V76h-11.8V23.1
			H258.9z"/>
		<path class="st0" d="M265,59.2h11.8c0,1.4,0.5,2.6,1.5,3.6c1,1,2.2,1.5,3.6,1.5c1.4,0,2.6-0.5,3.6-1.5c1-1,1.5-2.2,1.5-3.6
			c0-1.6-0.8-3-2.3-4.3c-0.6-0.4-1.7-1-3.3-1.8c-1.6-0.7-3.1-1.5-4.6-2.3c-1.5-0.8-3-1.8-4.5-2.9c-1.5-1.1-2.7-2.6-3.6-4.3
			c-0.9-1.7-1.4-3.6-1.4-5.7c0-4.1,1.4-7.6,4.3-10.4c2.9-2.9,6.4-4.3,10.4-4.3c4,0,7.5,1.4,10.4,4.3c2.9,2.9,4.3,6.4,4.3,10.4h-11.7
			c0-0.8-0.3-1.5-0.9-2.2c-0.6-0.6-1.3-0.9-2.2-0.9s-1.5,0.3-2.1,0.9c-0.6,0.6-0.9,1.3-0.9,2.2c0,1.2,0.5,2.1,1.6,2.7
			c0.9,0.5,2.3,1.2,4.1,2c1.8,0.9,3.2,1.5,4.3,2.1c1.1,0.5,2.3,1.3,3.7,2.3c1.4,1,2.5,2,3.3,3c0.8,1,1.4,2.3,2,3.9
			c0.6,1.6,0.8,3.4,0.8,5.3c0,4.6-1.6,8.6-4.9,11.9c-3.3,3.3-7.2,4.9-11.9,4.9s-8.6-1.6-11.9-4.9C266.6,67.8,265,63.8,265,59.2z"/>
		<path class="st1" d="M365.5,28.5c3.6-3.5,8-5.3,13.2-5.3c5.3,0,9.8,1.9,13.5,5.6c3.7,3.7,5.6,8.2,5.6,13.5V76H386V42.2
			c0-2-0.7-3.8-2.2-5.2c-1.4-1.4-3.2-2.2-5.2-2.2c-2,0-3.7,0.7-5.1,2.2c-1.4,1.4-2.2,3.2-2.2,5.2V76h-11.8V42.2c0-2-0.7-3.8-2.2-5.2
			c-1.4-1.4-3.2-2.2-5.2-2.2c-2,0-3.7,0.7-5.1,2.2c-1.4,1.4-2.2,3.2-2.2,5.2V76h-11.8V42.2c0-5.2,1.9-9.7,5.6-13.5
			c3.7-3.7,8.2-5.6,13.5-5.6C357.4,23.1,361.8,24.9,365.5,28.5z"/>
		<path class="st2" d="M448.9,68.3c-5.2,5.2-11.4,7.7-18.7,7.7c-7.3,0-13.5-2.6-18.7-7.7c-5.2-5.2-7.7-11.4-7.7-18.7
			c0-7.3,2.6-13.5,7.7-18.7c5.2-5.2,11.4-7.7,18.7-7.7c7.3,0,13.5,2.6,18.7,7.7c5.2,5.2,7.7,11.4,7.7,18.7
			C456.6,56.9,454,63.1,448.9,68.3z M419.8,59.9c2.9,2.9,6.3,4.3,10.4,4.3c4,0,7.5-1.4,10.4-4.3c2.9-2.9,4.3-6.3,4.3-10.4
			c0-4.1-1.4-7.6-4.3-10.4c-2.9-2.9-6.3-4.3-10.4-4.3c-4,0-7.5,1.4-10.4,4.3c-2.9,2.9-4.3,6.4-4.3,10.4
			C415.5,53.6,416.9,57.1,419.8,59.9z"/>
		<path class="st3" d="M459.7,59.2h11.8c0,1.4,0.5,2.6,1.5,3.6c1,1,2.2,1.5,3.6,1.5c1.4,0,2.6-0.5,3.6-1.5c1-1,1.5-2.2,1.5-3.6
			c0-1.6-0.8-3-2.3-4.3c-0.6-0.4-1.7-1-3.3-1.8c-1.6-0.7-3.1-1.5-4.6-2.3c-1.5-0.8-3-1.8-4.5-2.9c-1.5-1.1-2.7-2.6-3.6-4.3
			c-0.9-1.7-1.4-3.6-1.4-5.7c0-4.1,1.4-7.6,4.3-10.4c2.9-2.9,6.4-4.3,10.4-4.3c4,0,7.5,1.4,10.4,4.3c2.9,2.9,4.3,6.4,4.3,10.4h-11.7
			c0-0.8-0.3-1.5-0.9-2.2c-0.6-0.6-1.3-0.9-2.2-0.9s-1.5,0.3-2.1,0.9c-0.6,0.6-0.9,1.3-0.9,2.2c0,1.2,0.5,2.1,1.6,2.7
			c0.9,0.5,2.3,1.2,4.1,2c1.8,0.9,3.2,1.5,4.3,2.1c1.1,0.5,2.3,1.3,3.7,2.3c1.4,1,2.5,2,3.3,3c0.8,1,1.4,2.3,2,3.9
			c0.6,1.6,0.8,3.4,0.8,5.3c0,4.6-1.6,8.6-4.9,11.9c-3.3,3.3-7.2,4.9-11.9,4.9s-8.6-1.6-11.9-4.9C461.4,67.8,459.7,63.8,459.7,59.2z
			"/>
		<path class="st4" d="M546.2,46.6V76h-11.7V46.6c0-3.2-1.1-6-3.4-8.2c-2.3-2.3-5.1-3.4-8.3-3.4c-3.3,0-6,1.1-8.3,3.4
			c-2.3,2.3-3.4,5-3.4,8.2V76h-11.8V8.5H511v17.8c3.7-2.1,7.6-3.1,11.8-3.1c6.5,0,12,2.3,16.6,6.9C543.9,34.6,546.2,40.1,546.2,46.6
			z"/>
		<path class="st5" d="M555.3,10.2c1.2-1.2,2.5-1.7,4.1-1.7c1.6,0,3,0.6,4.1,1.7s1.7,2.5,1.7,4.1c0,1.6-0.6,3-1.7,4.1
			s-2.5,1.7-4.1,1.7c-1.6,0-3-0.6-4.1-1.7c-1.2-1.2-1.7-2.5-1.7-4.1C553.6,12.8,554.2,11.4,555.3,10.2z M565.4,23.1V76h-11.8V23.1
			H565.4z"/>
		<path class="st6" d="M632.5,28.5c3.6-3.5,8-5.3,13.2-5.3c5.3,0,9.8,1.9,13.5,5.6c3.7,3.7,5.6,8.2,5.6,13.5V76H653V42.2
			c0-2-0.7-3.8-2.2-5.2c-1.4-1.4-3.2-2.2-5.2-2.2c-2,0-3.7,0.7-5.1,2.2c-1.4,1.4-2.2,3.2-2.2,5.2V76h-11.8V42.2c0-2-0.7-3.8-2.2-5.2
			c-1.4-1.4-3.2-2.2-5.2-2.2c-2,0-3.7,0.7-5.1,2.2c-1.4,1.4-2.2,3.2-2.2,5.2V76h-11.8V42.2c0-5.2,1.9-9.7,5.6-13.5
			c3.7-3.7,8.2-5.6,13.5-5.6C624.4,23.1,628.8,24.9,632.5,28.5z"/>
		<path class="st1" d="M715.8,68.3c-5.2,5.2-11.4,7.7-18.7,7.7c-7.3,0-13.5-2.6-18.7-7.7c-5.2-5.2-7.7-11.4-7.7-18.7
			c0-7.3,2.6-13.5,7.7-18.7c5.2-5.2,11.4-7.7,18.7-7.7c7.3,0,13.5,2.6,18.7,7.7c5.2,5.2,7.7,11.4,7.7,18.7
			C723.6,56.9,721,63.1,715.8,68.3z M686.8,59.9c2.9,2.9,6.3,4.3,10.4,4.3c4,0,7.5-1.4,10.4-4.3c2.9-2.9,4.3-6.3,4.3-10.4
			c0-4.1-1.4-7.6-4.3-10.4c-2.9-2.9-6.3-4.3-10.4-4.3c-4,0-7.5,1.4-10.4,4.3c-2.9,2.9-4.3,6.4-4.3,10.4
			C682.5,53.6,683.9,57.1,686.8,59.9z"/>
		<path class="st4" d="M754.4,76c-7.3,0-13.5-2.6-18.7-7.7c-5.2-5.2-7.7-11.4-7.7-18.7c0-7.3,2.6-13.5,7.7-18.7
			c5.2-5.2,11.4-7.7,18.7-7.7c5.2,0,10,1.4,14.4,4.3c4.3,2.8,7.6,6.6,9.7,11.2h-14.2c-2.8-2.5-6.1-3.8-9.8-3.8
			c-4,0-7.5,1.4-10.4,4.3c-2.9,2.9-4.3,6.4-4.3,10.4c0,4,1.4,7.5,4.3,10.4c2.9,2.9,6.3,4.3,10.4,4.3c4.4,0,8.1-1.7,11.1-5.1H779
			c-2,5-5.2,9.1-9.7,12.2C764.9,74.5,759.9,76,754.4,76z"/>
		<path class="st3" d="M830.7,46.6V76H819V46.6c0-3.2-1.1-6-3.4-8.2c-2.3-2.3-5.1-3.4-8.3-3.4c-3.3,0-6,1.1-8.3,3.4
			c-2.3,2.3-3.4,5-3.4,8.2V76h-11.8V8.5h11.8v17.8c3.7-2.1,7.6-3.1,11.8-3.1c6.5,0,12,2.3,16.6,6.9
			C828.4,34.6,830.7,40.1,830.7,46.6z"/>
		<path class="st2" d="M839.8,10.2c1.2-1.2,2.5-1.7,4.1-1.7c1.6,0,3,0.6,4.1,1.7c1.2,1.2,1.7,2.5,1.7,4.1c0,1.6-0.6,3-1.7,4.1
			c-1.2,1.2-2.5,1.7-4.1,1.7c-1.6,0-3-0.6-4.1-1.7c-1.2-1.2-1.7-2.5-1.7-4.1C838.1,12.8,838.7,11.4,839.8,10.2z M849.8,23.1V76
			h-11.8V23.1H849.8z"/>
		<path class="st0" d="M862.5,14.4c3.9-3.9,8.7-5.9,14.3-5.9c5.6,0,10.3,2,14.3,5.9c3.9,3.9,5.9,8.7,5.9,14.3
			c0,4.3-1.5,8.4-4.4,12.6c-0.4,0.6-1.6,2.1-3.8,4.7c-2.1,2.6-3.8,4.9-5.1,7c-1.3,2.1-1.9,3.9-1.9,5.3v3H870v-3c0-2.4,0.5-4.7,1.6-7
			c1-2.3,2.3-4.3,3.8-6c1.5-1.8,2.9-3.5,4.4-5.3c1.5-1.7,2.8-3.6,3.8-5.6c1-2,1.6-3.9,1.6-5.8c0-2.3-0.8-4.3-2.5-6
			c-1.7-1.7-3.6-2.5-6-2.5c-2.4,0-4.4,0.8-6,2.5c-1.6,1.7-2.4,3.6-2.4,6v0.2h-11.8v-0.2C856.5,23.1,858.5,18.4,862.5,14.4z
			 M880.1,74.3c-1.2,1.2-2.5,1.7-4.1,1.7c-1.6,0-3-0.6-4.1-1.7c-1.2-1.2-1.7-2.5-1.7-4.1c0-1.6,0.6-3,1.7-4.1
			c1.2-1.2,2.5-1.7,4.1-1.7c1.6,0,3,0.6,4.1,1.7c1.2,1.2,1.7,2.5,1.7,4.1C881.8,71.7,881.2,73.1,880.1,74.3z"/>
	</g>
</g>
</svg>
