<?xml version="1.0" encoding="utf-8"?>
<!-- Generator: Adobe Illustrator 24.3.0, SVG Export Plug-In . SVG Version: 6.00 Build 0)  -->
<svg version="1.1" id="Layer_1" xmlns="http://www.w3.org/2000/svg" xmlns:xlink="http://www.w3.org/1999/xlink" x="0px" y="0px"
	 viewBox="0 0 800 100" style="enable-background:new 0 0 800 100;" xml:space="preserve">
<style type="text/css">
	.st0{fill:#FFFFFF;stroke:#FFFFFF;stroke-miterlimit:10;}
	.st1{fill:#EFB1E7;stroke:#FFFFFF;stroke-miterlimit:10;}
	.st2{fill:#F9E178;stroke:#FFFFFF;stroke-miterlimit:10;}
	.st3{fill:#88DBFF;stroke:#FFFFFF;stroke-miterlimit:10;}
	.st4{fill:#AEFFAE;stroke:#FFFFFF;stroke-miterlimit:10;}
	.st5{fill:#FFCE99;stroke:#FFFFFF;stroke-miterlimit:10;}
</style>
<g>
	<g>
		<path class="st0" d="M184.3,75.2c-3.5,3.4-7.7,5.1-12.5,5.1c-4.9,0-9.2-1.8-12.7-5.3c-3.5-3.5-5.3-7.8-5.3-12.7V30.5h11.1v31.8
			c0,1.9,0.7,3.6,2,4.9c1.3,1.4,3,2,4.9,2c1.9,0,3.6-0.7,4.9-2c1.4-1.4,2-3,2-4.9V30.5h11.1v31.8c0,1.9,0.7,3.6,2,4.9
			c1.3,1.4,3,2,4.9,2s3.6-0.7,4.9-2c1.4-1.4,2-3,2-4.9V30.5h11.1v31.9c0,4.9-1.8,9.2-5.3,12.7c-3.5,3.5-7.8,5.3-12.7,5.3
			C191.9,80.3,187.8,78.6,184.3,75.2z"/>
		<path class="st0" d="M265.9,52.6v27.7h-11V52.6c0-3-1.1-5.6-3.2-7.8c-2.2-2.2-4.8-3.2-7.8-3.2s-5.7,1.1-7.8,3.2
			c-2.2,2.2-3.2,4.8-3.2,7.8v27.7h-11.1V16.7h11.1v16.8c3.5-2,7.2-3,11.1-3c6.1,0,11.3,2.2,15.6,6.5
			C263.7,41.3,265.9,46.5,265.9,52.6z"/>
		<path class="st0" d="M296.1,83.6c-1.7,4.7-4.5,8.5-8.5,11.4c-3.9,2.9-8.3,4.6-13.2,5h-0.2V88.8c2.6-0.3,4.9-1.3,6.9-2.8
			c2-1.6,3.5-3.6,4.5-6.1l1.6-4.4l-20-45h12.1l13.4,30l10.9-30h11.8L296.1,83.6z"/>
		<path class="st1" d="M380.2,32.4c3.7-3.6,8.1-5.3,13.3-5.3c5.3,0,9.9,1.9,13.6,5.6c3.8,3.8,5.6,8.3,5.6,13.6v34h-11.8v-34
			c0-2.1-0.7-3.8-2.2-5.3c-1.4-1.4-3.2-2.2-5.3-2.2c-2,0-3.7,0.7-5.2,2.2c-1.4,1.4-2.2,3.2-2.2,5.3v34h-11.8v-34
			c0-2.1-0.7-3.8-2.2-5.3c-1.4-1.4-3.2-2.2-5.3-2.2c-2,0-3.7,0.7-5.2,2.2c-1.4,1.4-2.2,3.2-2.2,5.3v34h-11.8v-34
			c0-5.3,1.9-9.8,5.6-13.6c3.8-3.8,8.3-5.6,13.6-5.6C372.1,27.1,376.5,28.9,380.2,32.4z"/>
		<path class="st2" d="M464.1,72.5c-5.2,5.2-11.5,7.8-18.8,7.8c-7.3,0-13.6-2.6-18.8-7.8c-5.2-5.2-7.8-11.5-7.8-18.8
			c0-7.3,2.6-13.6,7.8-18.8c5.2-5.2,11.5-7.8,18.8-7.8c7.3,0,13.6,2.6,18.8,7.8c5.2,5.2,7.8,11.5,7.8,18.8
			C471.9,61,469.3,67.3,464.1,72.5z M434.9,64.1c2.9,2.9,6.4,4.3,10.4,4.3c4.1,0,7.5-1.4,10.4-4.3c2.9-2.9,4.3-6.4,4.3-10.4
			c0-4.1-1.4-7.6-4.3-10.5c-2.9-2.9-6.4-4.3-10.4-4.3c-4.1,0-7.5,1.4-10.4,4.3c-2.9,2.9-4.3,6.4-4.3,10.5
			C430.5,57.8,432,61.2,434.9,64.1z"/>
		<path class="st3" d="M502.9,80.3c-7.3,0-13.6-2.6-18.8-7.8c-5.2-5.2-7.8-11.5-7.8-18.8c0-7.3,2.6-13.6,7.8-18.8
			c5.2-5.2,11.5-7.8,18.8-7.8c5.3,0,10.1,1.4,14.5,4.3c4.4,2.9,7.6,6.6,9.7,11.3h-14.3c-2.8-2.6-6.1-3.8-9.8-3.8
			c-4.1,0-7.5,1.4-10.4,4.3c-2.9,2.9-4.3,6.4-4.3,10.5c0,4.1,1.4,7.5,4.3,10.4c2.9,2.9,6.4,4.3,10.4,4.3c4.4,0,8.2-1.7,11.2-5.1
			h13.6c-2,5.1-5.2,9.1-9.7,12.3C513.5,78.7,508.5,80.3,502.9,80.3z"/>
		<path class="st4" d="M579.8,50.7v29.6H568V50.7c0-3.2-1.2-6-3.5-8.3c-2.3-2.3-5.1-3.5-8.4-3.5c-3.3,0-6.1,1.2-8.4,3.5
			c-2.3,2.3-3.5,5.1-3.5,8.3v29.6h-11.8v-68h11.8v17.9c3.7-2.1,7.7-3.2,11.8-3.2c6.5,0,12.1,2.3,16.7,6.9
			C577.4,38.6,579.8,44.2,579.8,50.7z"/>
		<path class="st5" d="M588.9,14.1c1.2-1.2,2.6-1.8,4.2-1.8c1.6,0,3,0.6,4.2,1.8c1.2,1.2,1.8,2.6,1.8,4.2c0,1.6-0.6,3-1.8,4.2
			c-1.2,1.2-2.6,1.8-4.2,1.8c-1.6,0-3-0.6-4.2-1.8c-1.2-1.2-1.8-2.6-1.8-4.2C587.2,16.6,587.8,15.2,588.9,14.1z M599,27.1v53.2
			h-11.8V27.1H599z"/>
		<path class="st0" d="M611.7,18.3c4-4,8.8-6,14.4-6c5.6,0,10.4,2,14.4,6c4,4,6,8.8,6,14.4c0,4.3-1.5,8.5-4.4,12.7
			c-0.4,0.6-1.7,2.1-3.8,4.8c-2.1,2.6-3.9,5-5.1,7c-1.3,2.1-1.9,3.9-1.9,5.4v3h-11.8v-3c0-2.4,0.5-4.7,1.6-7
			c1.1-2.3,2.3-4.3,3.8-6.1c1.5-1.8,3-3.5,4.5-5.3c1.5-1.8,2.8-3.6,3.8-5.6c1.1-2,1.6-3.9,1.6-5.9c0-2.3-0.8-4.3-2.5-6
			s-3.7-2.5-6-2.5c-2.4,0-4.4,0.8-6,2.5c-1.6,1.7-2.5,3.7-2.5,6v0.2h-11.8v-0.2C605.8,27.1,607.8,22.3,611.7,18.3z M629.5,78.5
			c-1.2,1.2-2.6,1.8-4.2,1.8c-1.6,0-3-0.6-4.2-1.8c-1.2-1.2-1.8-2.6-1.8-4.2c0-1.6,0.6-3,1.8-4.2c1.2-1.2,2.6-1.8,4.2-1.8
			c1.6,0,3,0.6,4.2,1.8c1.2,1.2,1.8,2.6,1.8,4.2C631.2,76,630.6,77.4,629.5,78.5z"/>
	</g>
</g>
</svg>
